<svg width="35" height="35" viewBox="0 0 35 35" fill="none" xmlns="http://www.w3.org/2000/svg">
<rect width="35" height="35" rx="17.5" fill="#0077FF"/>
<path d="M18.3607 23.625C11.7837 23.625 8.03229 19.0267 7.87598 11.375H11.1705C11.2787 16.9911 13.7075 19.37 15.6313 19.8605V11.375H18.7334V16.2186C20.6332 16.0101 22.6291 13.8029 23.3024 11.375H26.4046C26.1508 12.6342 25.6451 13.8264 24.9189 14.8772C24.1927 15.9279 23.2617 16.8146 22.1842 17.4816C23.387 18.0911 24.4493 18.9538 25.3012 20.0128C26.153 21.0717 26.775 22.3029 27.126 23.625H23.7112C23.3961 22.4767 22.7557 21.4487 21.8702 20.67C20.9847 19.8912 19.8935 19.3964 18.7334 19.2474V23.625H18.3607Z" fill="white"/>
</svg>
